<?xml version="1.0" encoding="UTF-8" standalone="no"?>
<svg
   version="1.1"
   width="412.80328"
   height="412.80328"
   id="svg32"
   sodipodi:docname="logo-dark.svg"
   inkscape:version="1.4.2 (ebf0e940d0, 2025-05-08)"
   xmlns:inkscape="http://www.inkscape.org/namespaces/inkscape"
   xmlns:sodipodi="http://sodipodi.sourceforge.net/DTD/sodipodi-0.dtd"
   xmlns="http://www.w3.org/2000/svg"
   xmlns:svg="http://www.w3.org/2000/svg">
  <defs
     id="defs32" />
  <sodipodi:namedview
     id="namedview32"
     pagecolor="#ffffff"
     bordercolor="#000000"
     borderopacity="0.25"
     inkscape:showpageshadow="2"
     inkscape:pageopacity="0.0"
     inkscape:pagecheckerboard="0"
     inkscape:deskcolor="#d1d1d1"
     inkscape:zoom="1.14375"
     inkscape:cx="229.07104"
     inkscape:cy="210.71038"
     inkscape:window-width="1280"
     inkscape:window-height="720"
     inkscape:window-x="0"
     inkscape:window-y="0"
     inkscape:window-maximized="1"
     inkscape:current-layer="svg32" />
  <path
     d="m 207.58777,62.151638 c 1.14492,-0.001 1.14492,-0.001 2.31296,-0.002 11.04942,0.01554 21.51448,0.401623 32.24954,3.252045 0.67128,0.166289 1.34256,0.332578 2.03418,0.503906 23.38937,5.833839 44.31576,17.109378 61.96582,33.496094 0.58024,0.536411 1.16048,1.072822 1.7583,1.625492 25.12196,23.49374 43.61583,58.07501 45.36743,92.87231 1.19835,42.85705 -14.27121,79.99003 -43.12573,111.5022 -2.36922,2.41153 -4.76217,4.77955 -7.22265,7.09766 -2.78954,2.98572 -3.69291,5.1565 -4.15235,9.21484 0.43999,4.32656 1.4143,7.50278 4.375,10.6875 21.39027,12.70229 54.09932,10.28763 77.24658,4.43164 7.51201,-2.06559 14.80979,-4.66684 21.93311,-7.83008 1.82031,-0.60156 1.82031,-0.60156 3.82031,0.39844 -31.11183,19.79844 -66.59484,26.79463 -102.875,19.1875 -16.60666,-3.72294 -31.32185,-10.99356 -46.125,-19.1875 -1.00804,-0.55301 -2.01609,-1.10602 -3.05469,-1.67578 -0.64195,-0.43699 -1.2839,-0.87399 -1.94531,-1.32422 0,-0.66 0,-1.32 0,-2 0.99258,-0.53367 1.98516,-1.06734 3.00781,-1.61719 33.80974,-18.42033 56.78963,-44.96933 67.81031,-82.14233 2.46197,-9.34879 2.69693,-18.33283 2.61938,-27.92798 -0.003,-0.79587 -0.006,-1.59173 -0.009,-2.41171 -0.0663,-11.72552 -0.60593,-22.71863 -4.42828,-33.90079 -0.21431,-0.63519 -0.42861,-1.27037 -0.64941,-1.9248 -5.08746,-14.72856 -12.56611,-27.98607 -22.35081,-40.0752 -0.80244,-1.01514 -0.80244,-1.01514 -1.62109,-2.05078 -14.05308,-17.17599 -35.34849,-28.91907 -56.37891,-34.949222 -1.22203,-0.393164 -2.44406,-0.786328 -3.70312,-1.191406 -26.37541,-7.885191 -57.13642,-3.430407 -81.29688,9.191408 -0.61698,0.31872 -1.23395,0.63744 -1.86963,0.96582 -8.04833,4.21869 -15.25168,9.09456 -22.13037,15.03418 -0.73476,0.59039 -1.46953,1.18078 -2.22656,1.78906 -20.14713,16.72995 -31.264918,41.18248 -36.773438,66.21094 -0.17652,0.75426 -0.35304,1.50853 -0.53491,2.28564 -5.36087,31.28719 2.87473,64.03506 20.722408,89.88233 2.1981,3.01094 4.4681,5.93386 6.8125,8.83203 0.68578,0.85207 1.37156,1.70414 2.07813,2.58203 8.90166,10.4677 20.19833,18.39433 31.92187,25.41797 0.95778,0.58008 1.91555,1.16016 2.90235,1.75781 2.36042,1.42354 4.72589,2.83765 7.09765,4.24219 -1.13994,3.41984 -1.54298,3.60963 -4.54297,5.26953 -1.10468,0.61633 -1.10468,0.61633 -2.23169,1.24512 -0.79623,0.42829 -1.59247,0.85658 -2.41284,1.29785 -0.82008,0.44505 -1.64017,0.8901 -2.4851,1.34863 -28.55745,15.29516 -61.172538,22.56181 -93.327398,15.83887 -1.25426,-0.25652 -2.50852,-0.51305 -3.80078,-0.77734 -16.7262,-3.67316 -31.9571,-10.76824 -46.1992196,-20.22266 -0.33,-0.66 -0.66,-1.32 -1,-2 2.75181,1.08829 5.4846796,2.20663 8.2070296,3.36719 9.10994,3.80979 18.118,6.60992 27.79297,8.63281 0.80792,0.17733 1.61584,0.35465 2.44824,0.53735 20.26281,4.12316 48.14651,4.26887 66.551758,-6.53735 3.3463,-3.68093 3.70187,-7.64412 3.53125,-12.45703 -0.98542,-4.71699 -4.11462,-7.3395 -7.53125,-10.54297 -27.153398,-26.6693 -44.570238,-61.76772 -45.241208,-100.3916 -0.1479,-38.63484 13.45284,-74.69447 40.241208,-102.6084 1.22783,-1.32258 1.22783,-1.32258 2.48047,-2.67188 26.86982,-28.100193 63.59652,-41.54775 101.95703,-41.578122 z"
     fill="#42d6f5"
     id="path2" />
  <path
     d="m 195.39636,118.26883 c 1.00225,-0.001 2.00449,-0.003 3.03711,-0.004 1.04092,0.004 2.08184,0.008 3.1543,0.0117 1.55557,-0.006 1.55557,-0.006 3.14258,-0.0117 1.5053,0.002 1.5053,0.002 3.04101,0.004 0.91193,0.001 1.82386,0.002 2.76343,0.003 2.62941,0.13008 5.05158,0.54678 7.61548,1.12939 0,0.33 0,0.66 0,1 -1.18594,0.0258 -2.37188,0.0516 -3.59375,0.0781 -25.26482,0.78008 -47.3165,8.68438 -65.21094,27.3164 -15.33434,18.1993 -21.57287,40.08493 -20.19531,63.60547 2.62493,21.39988 13.43012,40.19032 29.58984,54.25391 18.44124,14.17064 39.31121,19.62776 62.375,17.35547 15.27867,-2.38109 29.10419,-8.77776 41.03516,-18.60938 0.61617,-0.45504 1.23234,-0.91008 1.86719,-1.3789 14.88327,-11.48825 23.62872,-31.26282 26.72656,-49.35938 0.83746,-6.72387 1.10484,-13.49596 1.40625,-20.26172 2.783,4.79876 2.34278,9.45866 2.3125,14.875 -0.006,1.03705 -0.0113,2.0741 -0.0171,3.14258 -0.38677,24.55398 -10.82876,45.04506 -28.29541,61.98242 -20.46851,17.80946 -45.58325,22.59229 -72,21 -5.54974,-0.69398 -10.71337,-2.1714 -16,-4 -1.53914,-0.50853 -1.53914,-0.50853 -3.10938,-1.02734 -22.60381,-8.40168 -39.67663,-26.38542 -49.79101,-47.88672 -8.47393,-18.89896 -10.9931,-42.75233 -4.48633,-62.6836 9.85891,-24.18905 24.31284,-42.64281 48.25781,-54.12109 5.56212,-2.27762 11.30759,-3.81842 17.12891,-5.28125 0.92148,-0.26696 0.92148,-0.26696 1.86157,-0.53931 2.50994,-0.54073 4.81694,-0.59032 7.38452,-0.5935 z"
     fill="#42cff0"
     id="path3" />
</svg>
